<?xml version="1.0" standalone="no"?>
<!DOCTYPE svg PUBLIC "-//W3C//DTD SVG 20010904//EN"
 "http://www.w3.org/TR/2001/REC-SVG-20010904/DTD/svg10.dtd">
<svg version="1.0" xmlns="http://www.w3.org/2000/svg"
 width="1120.000000pt" height="1120.000000pt" viewBox="0 0 1120.000000 1120.000000"
 preserveAspectRatio="xMidYMid meet">

<g transform="translate(0.000000,1120.000000) scale(0.100000,-0.100000)"
fill="#000000" stroke="none">
<path d="M4965 7293 c-154 -10 -487 -66 -640 -108 -49 -14 -108 -30 -130 -36
-57 -16 -295 -100 -325 -115 -14 -6 -50 -22 -80 -34 -94 -38 -261 -122 -352
-177 -47 -29 -89 -53 -92 -53 -11 0 -126 -83 -126 -91 0 -5 7 -9 15 -9 8 0 15
-4 15 -10 0 -14 -17 -12 -32 4 -11 12 -26 5 -97 -45 -122 -84 -223 -164 -423
-332 -21 -17 -38 -36 -38 -41 0 -5 22 11 48 35 70 63 90 78 96 72 3 -4 6 -1 6
5 0 7 6 12 14 12 7 0 16 9 19 20 3 11 10 20 17 20 6 0 8 -6 5 -12 -4 -7 9 5
28 27 19 22 39 37 43 32 4 -4 -1 -14 -12 -22 -10 -8 -14 -15 -8 -15 6 0 19 9
29 20 14 15 15 20 4 20 -10 1 -9 4 4 11 9 6 15 14 12 19 -3 4 5 6 17 2 14 -3
19 -1 14 6 -7 11 34 45 43 36 3 -3 -2 -10 -12 -15 -9 -6 -17 -15 -17 -21 0 -9
3 -9 12 0 17 17 33 15 18 -3 -7 -8 -9 -15 -4 -15 5 0 1 -7 -10 -15 -17 -13
-14 -41 4 -30 10 6 19 -21 17 -51 -2 -18 -36 -63 -44 -56 -10 8 -14 0 -4 -11
8 -10 7 -17 -1 -25 -17 -17 -33 -15 -19 2 9 10 8 15 -3 19 -10 4 -13 -1 -11
-18 2 -18 -9 -33 -47 -62 -27 -21 -57 -45 -67 -54 -9 -8 -23 -14 -29 -13 -7 1
-8 0 -2 -3 15 -7 1 -23 -15 -16 -8 3 -15 0 -15 -6 0 -18 23 -13 50 12 14 12
46 38 70 57 25 19 52 40 60 47 57 46 205 160 219 168 43 25 152 107 148 111
-4 4 -58 -27 -92 -53 -5 -5 -17 -8 -25 -8 -8 0 -15 -5 -15 -12 0 -6 -3 -15 -7
-19 -5 -4 -8 2 -8 14 0 21 -15 31 -22 14 -1 -5 -15 -12 -30 -16 -21 -5 -28 -3
-28 8 0 9 6 14 13 12 6 -1 9 -1 5 1 -5 3 -8 24 -8 49 0 33 -3 42 -14 38 -8 -3
-17 -1 -21 5 -4 7 0 8 11 4 12 -4 15 -3 10 5 -5 8 2 10 22 6 18 -4 32 -1 37 5
5 8 -2 10 -22 5 l-28 -7 28 26 c40 38 60 47 80 36 9 -6 22 -7 28 -4 5 4 15 3
22 -3 7 -5 23 -5 37 -1 24 7 24 7 -6 8 -17 1 -39 10 -49 21 -19 22 -7 28 14 8
10 -11 11 -9 5 7 -4 11 -4 17 1 13 4 -4 14 -3 22 3 10 9 18 7 34 -7 19 -17 20
-17 26 4 6 25 16 28 32 8 7 -8 19 -13 29 -12 9 2 22 -3 29 -10 15 -15 17 -28
4 -20 -5 4 -8 -2 -6 -11 1 -11 10 -17 21 -16 18 1 18 1 0 -13 -14 -10 -22 -11
-27 -3 -5 8 -8 8 -11 -1 -3 -9 -10 -9 -31 1 -32 14 -41 9 -33 -19 12 -37 35
-32 128 26 51 32 113 66 138 77 25 11 61 29 80 40 19 11 55 30 80 40 58 26
141 68 115 59 -50 -16 -58 -17 -51 -6 4 7 14 12 23 12 9 0 14 3 10 6 -10 10
-48 -7 -44 -19 5 -16 -59 -47 -81 -40 -15 4 -15 3 -2 -7 12 -9 8 -10 -20 -6
-35 6 -62 -3 -59 -20 4 -24 -3 -34 -26 -34 -22 0 -25 4 -25 35 0 24 -5 35 -15
35 -11 0 -15 -11 -15 -39 0 -41 -13 -54 -48 -44 -14 3 -24 -2 -31 -15 -6 -11
-20 -22 -31 -25 -11 -3 -18 -1 -14 4 3 5 -2 9 -11 9 -15 0 -15 1 -1 16 9 8 16
17 16 19 0 2 -41 2 -91 1 -79 -2 -89 -1 -73 11 10 7 23 13 28 13 6 0 4 -5 -4
-10 -11 -7 -12 -10 -2 -10 8 0 16 8 19 18 2 11 20 25 39 32 19 8 34 18 34 22
0 5 5 6 12 2 7 -5 8 -3 3 6 -6 9 0 11 21 6 16 -3 36 -1 44 4 11 8 7 9 -15 5
-29 -6 -29 -6 -10 10 11 8 25 13 32 11 7 -3 13 1 13 9 0 9 10 15 26 15 15 0
23 4 19 11 -4 6 -1 9 6 8 8 -1 33 3 56 10 29 8 40 16 37 25 -4 9 5 16 25 21
17 4 31 11 31 16 0 6 10 8 23 4 17 -5 19 -4 7 4 -20 15 4 15 33 0 21 -9 21 -9
3 5 -17 14 -14 16 38 31 31 9 56 21 56 26 0 5 12 6 26 3 21 -5 25 -4 19 6 -6
10 -1 11 21 6 18 -4 24 -3 16 2 -11 7 -10 10 3 16 22 8 27 8 21 -3 -4 -5 11
-5 35 0 42 10 64 5 53 -12 -3 -5 -2 -9 3 -8 18 3 33 -2 33 -11 0 -5 -9 -10
-20 -10 -11 0 -20 4 -20 8 0 4 -18 8 -40 7 -35 0 -40 -3 -40 -22 0 -16 -10
-27 -32 -37 l-33 -14 33 -1 c23 -1 32 4 32 14 0 13 11 16 50 14 42 -2 53 1 66
19 8 12 19 20 24 17 4 -3 10 0 12 7 3 7 5 -9 6 -36 l2 -48 -47 5 c-33 4 -40 3
-23 -3 18 -6 20 -8 7 -9 -10 -1 -15 -6 -12 -11 4 -7 -3 -8 -21 -4 -19 5 -25 4
-20 -5 4 -6 0 -14 -11 -17 -10 -3 -26 -10 -35 -15 -10 -5 -28 -9 -40 -9 -21
-1 -21 -2 -6 -11 13 -7 27 -6 50 5 88 41 292 103 448 138 74 16 145 34 157 40
11 6 25 8 30 5 5 -3 24 -1 43 3 27 7 18 8 -35 5 -105 -7 -165 -16 -165 -25 0
-16 -84 -32 -112 -21 -15 6 -64 13 -110 16 -66 5 -85 10 -96 26 -10 15 -17 17
-33 9 -19 -11 -39 -6 -39 9 0 4 19 16 43 26 42 19 85 25 165 26 23 0 42 4 42
8 0 5 14 11 30 13 17 3 30 1 30 -4 0 -4 -9 -8 -19 -8 -11 0 -22 -4 -25 -8 -3
-5 36 -10 87 -11 51 -1 106 -3 122 -5 17 -2 22 -1 13 1 -12 3 -18 14 -18 33 0
16 -3 35 -6 44 -5 14 2 15 57 11 34 -3 65 -9 68 -13 11 -17 41 -22 41 -7 0 7
-8 16 -17 18 -10 3 2 5 27 5 25 -1 59 1 75 4 17 3 41 2 55 -3 21 -6 18 -7 -17
-8 -42 -1 -43 -2 -43 -37 0 -20 4 -33 10 -29 5 3 21 3 35 -1 20 -5 23 -9 13
-15 -14 -10 10 -13 72 -9 19 1 32 -1 29 -5 -4 -3 -31 -8 -60 -10 -92 -6 -179
-18 -179 -24 0 -4 71 2 158 12 129 15 204 17 422 12 146 -3 292 -7 325 -10 38
-3 53 -2 40 4 l-20 8 20 5 c19 5 19 6 -2 7 -12 0 -33 -3 -48 -9 -14 -5 -24 -6
-21 -1 3 5 -1 12 -10 15 -22 9 -66 7 -60 -2 2 -4 -14 -5 -37 -3 -37 4 -39 5
-17 12 21 6 18 8 -15 7 -84 -2 -95 1 -95 22 0 24 62 39 84 21 14 -12 52 -11
72 1 6 4 14 4 18 0 4 -4 16 -8 27 -8 10 -1 24 -2 29 -3 6 0 10 -12 10 -25 0
-23 3 -24 38 -19 20 3 39 9 42 13 3 3 14 7 25 8 11 0 50 3 87 7 51 4 70 2 82
-10 8 -8 22 -15 31 -15 9 0 19 -8 22 -19 3 -14 17 -20 56 -25 76 -9 97 -7 97
7 0 16 62 20 72 4 6 -9 8 -9 8 1 0 7 -18 19 -40 28 -43 17 -52 38 -20 47 11 3
18 1 14 -4 -3 -5 3 -9 12 -9 34 0 149 -32 165 -46 19 -17 46 -18 51 -2 3 9 6
9 12 0 4 -7 2 -12 -3 -12 -6 0 -11 -4 -11 -10 0 -5 7 -10 15 -10 8 0 15 5 15
10 0 12 38 12 65 -1 18 -9 18 -9 -3 -5 -27 5 -52 -2 -52 -15 0 -5 7 -9 16 -9
9 0 12 5 8 12 -5 8 -2 9 10 5 10 -4 29 -4 43 -1 l25 7 -33 15 c-19 8 -41 14
-49 15 -8 0 -17 4 -20 8 -10 15 -252 79 -279 73 -19 -4 -22 -3 -12 4 10 7 2
12 -30 18 -24 5 -51 8 -59 7 -8 -1 -17 2 -20 7 -7 10 -301 56 -453 70 -106 9
-426 11 -562 3z m-10 -49 c0 -17 -9 -19 -105 -20 -58 0 -130 -4 -160 -7 -35
-4 -48 -4 -35 2 19 8 19 9 -5 13 -14 3 4 4 40 2 45 -2 56 -1 35 5 -25 6 -17 9
45 14 182 17 185 17 185 -9z m73 19 c-10 -2 -28 -2 -40 0 -13 2 -5 4 17 4 22
1 32 -1 23 -4z m725 -20 c-7 -2 -21 -2 -30 0 -10 3 -4 5 12 5 17 0 24 -2 18
-5z m37 -13 c-8 -5 -19 -10 -25 -10 -5 0 -3 5 5 10 8 5 20 10 25 10 6 0 3 -5
-5 -10z m47 4 c-3 -3 -12 -4 -19 -1 -8 3 -5 6 6 6 11 1 17 -2 13 -5z m-1222
-14 c4 -7 -3 -8 -22 -4 -38 9 -42 14 -10 14 14 0 29 -5 32 -10z m985 -9 c0
-13 -9 -20 -32 -23 -46 -7 -71 1 -55 16 30 30 87 35 87 7z m113 12 c-7 -2 -19
-2 -25 0 -7 3 -2 5 12 5 14 0 19 -2 13 -5z m195 0 c-10 -2 -26 -2 -35 0 -10 3
-2 5 17 5 19 0 27 -2 18 -5z m-1383 -13 c-11 -5 -27 -9 -35 -9 -9 0 -8 4 5 9
11 5 27 9 35 9 9 0 8 -4 -5 -9z m613 -5 c3 -3 -18 -5 -47 -5 -29 0 -50 4 -47
9 6 9 85 5 94 -4z m717 5 c25 -11 -1 -11 -35 0 -20 6 -21 8 -5 8 11 0 29 -3
40 -8z m-575 -21 c0 -14 -77 -11 -83 4 -3 9 7 11 39 8 24 -1 44 -7 44 -12z
m678 14 c-10 -2 -28 -2 -40 0 -13 2 -5 4 17 4 22 1 32 -1 23 -4z m-1518 -28
c0 -8 -4 -15 -10 -15 -5 0 -7 7 -4 15 4 8 8 15 10 15 2 0 4 -7 4 -15z m38 -8
c2 -11 -3 -17 -15 -17 -15 0 -16 2 -3 10 10 6 11 10 3 10 -7 0 -13 5 -13 11 0
17 25 4 28 -14z m419 17 c-3 -3 -12 -4 -19 -1 -8 3 -5 6 6 6 11 1 17 -2 13 -5z
m-510 -10 c-3 -3 -12 -4 -19 -1 -8 3 -5 6 6 6 11 1 17 -2 13 -5z m-50 -10 c-3
-3 -12 -4 -19 -1 -8 3 -5 6 6 6 11 1 17 -2 13 -5z m713 -3 c30 -8 17 -18 -37
-27 -26 -4 -43 -2 -47 5 -17 28 24 39 84 22z m-740 -11 c18 -12 2 -12 -25 0
-13 6 -15 9 -5 9 8 0 22 -4 30 -9z m1887 4 c-3 -3 -12 -4 -19 -1 -8 3 -5 6 6
6 11 1 17 -2 13 -5z m-1947 -14 c-8 -5 -19 -10 -25 -10 -5 0 -3 5 5 10 8 5 20
10 25 10 6 0 3 -5 -5 -10z m1987 4 c-3 -3 -12 -4 -19 -1 -8 3 -5 6 6 6 11 1
17 -2 13 -5z m-1049 -11 c-10 -2 -28 -2 -40 0 -13 2 -5 4 17 4 22 1 32 -1 23
-4z m1089 1 c-3 -3 -12 -4 -19 -1 -8 3 -5 6 6 6 11 1 17 -2 13 -5z m-2202 -44
c-3 -5 -12 -10 -18 -10 -7 0 -6 4 3 10 19 12 23 12 15 0z m295 -87 c3 -3 -7
-4 -22 -1 -15 3 -30 0 -33 -6 -3 -8 -7 -7 -11 2 -3 6 -17 12 -32 12 -25 0 -25
0 -6 -16 18 -15 17 -15 -15 -10 -43 8 -48 13 -31 29 10 10 11 9 5 -3 -7 -12
-6 -13 6 -4 8 7 23 14 34 16 21 4 96 -9 105 -19z m-713 -89 c-3 -3 -12 -4 -19
-1 -8 3 -5 6 6 6 11 1 17 -2 13 -5z m68 -144 c-3 -5 -13 -10 -21 -10 -8 0 -12
5 -9 10 3 6 13 10 21 10 8 0 12 -4 9 -10z m-441 -58 c3 -5 -1 -9 -9 -9 -8 0
-12 4 -9 9 3 4 7 8 9 8 2 0 6 -4 9 -8z m336 -2 c-8 -5 -22 -9 -30 -9 -10 0 -8
3 5 9 27 12 43 12 25 0z m-55 -10 c3 -5 0 -10 -9 -10 -8 0 -16 -6 -19 -12 -3
-7 -4 -3 -4 10 1 22 21 30 32 12z m-165 -95 c7 -8 8 -15 2 -15 -5 0 -15 7 -22
15 -7 8 -8 15 -2 15 5 0 15 -7 22 -15z m-296 -120 c-4 -8 -8 -15 -10 -15 -2 0
-4 7 -4 15 0 8 4 15 10 15 5 0 7 -7 4 -15z m56 -50 c-7 -9 -15 -13 -17 -11 -7
7 7 26 19 26 6 0 6 -6 -2 -15z m-40 -35 c4 -3 -12 -20 -36 -38 -45 -33 -57
-36 -27 -7 14 14 14 18 2 26 -11 8 -10 10 6 8 37 -3 43 1 39 24 -2 12 -1 15 2
7 4 -8 10 -17 14 -20z"/>
<path d="M4744 7131 c4 -5 0 -11 -6 -14 -7 -2 8 -8 34 -12 26 -4 53 -5 60 -2
7 3 -5 6 -27 7 -22 1 -34 4 -27 7 21 8 13 23 -14 23 -14 0 -23 -4 -20 -9z"/>
<path d="M6101 7136 c2 -2 27 -6 54 -9 34 -4 42 -3 25 3 -25 8 -87 13 -79 6z"/>
<path d="M4375 7111 c-6 -5 -19 -11 -30 -14 -11 -3 -4 -5 18 -6 27 -1 37 3 37
14 0 17 -11 20 -25 6z"/>
<path d="M4660 7110 c0 -5 4 -10 9 -10 6 0 13 5 16 10 3 6 -1 10 -9 10 -9 0
-16 -4 -16 -10z"/>
<path d="M4707 7114 c-11 -11 3 -24 26 -23 15 0 17 2 7 6 -8 3 -18 10 -21 15
-3 4 -8 5 -12 2z"/>
<path d="M5780 7112 c6 -2 7 -8 4 -13 -3 -6 6 -7 23 -3 62 15 67 22 16 20 -29
0 -48 -3 -43 -4z"/>
<path d="M4240 7098 c0 -5 18 -8 40 -8 22 0 40 2 40 4 0 2 -18 6 -40 8 -22 2
-40 0 -40 -4z"/>
<path d="M4560 7090 c0 -6 7 -10 15 -10 8 0 15 2 15 4 0 2 -7 6 -15 10 -8 3
-15 1 -15 -4z"/>
<path d="M5697 7093 c-14 -13 -6 -23 19 -23 37 0 269 -46 409 -81 107 -27 254
-74 310 -99 11 -5 43 -18 70 -29 28 -10 99 -42 159 -70 110 -52 136 -59 136
-40 0 5 -4 7 -10 4 -12 -7 -80 23 -80 36 0 5 -8 6 -17 2 -10 -3 -15 -3 -11 2
10 10 -42 37 -59 31 -7 -3 -15 -1 -18 4 -4 6 1 10 9 10 8 0 17 3 19 8 5 7 -25
12 -83 13 -26 0 -31 2 -20 10 12 8 10 10 -8 6 -14 -3 -27 1 -35 11 -6 10 -21
18 -32 19 -30 2 -67 12 -74 19 -3 4 12 4 34 0 32 -5 36 -4 21 5 -10 6 -33 9
-52 6 -26 -4 -34 -2 -34 9 0 9 -5 12 -11 8 -6 -3 -15 -1 -19 7 -5 7 -27 13
-54 13 -30 1 -42 4 -36 11 6 7 -3 10 -28 7 -26 -2 -33 0 -23 6 15 11 -73 27
-122 23 -16 -1 -29 3 -32 11 -5 12 -31 17 -102 21 -6 0 -9 6 -6 14 3 7 0 13
-6 13 -6 0 -11 -4 -11 -9 0 -4 -17 -7 -37 -4 -108 10 -143 16 -143 24 0 11
-14 12 -23 2z m430 -89 c-3 -3 -12 -4 -19 -1 -8 3 -5 6 6 6 11 1 17 -2 13 -5z
m463 -154 c13 -9 13 -10 0 -10 -8 0 -22 5 -30 10 -13 9 -13 10 0 10 8 0 22 -5
30 -10z"/>
<path d="M5835 7090 l-30 -8 35 -1 c19 0 42 4 50 9 12 8 11 10 -5 9 -11 -1
-33 -5 -50 -9z"/>
<path d="M6455 7055 l-40 -13 32 -1 c17 -1 35 4 38 9 3 6 11 10 16 10 6 0 7
-4 4 -10 -3 -6 5 -10 19 -10 14 0 27 -4 30 -9 3 -4 20 -11 38 -15 27 -5 30 -9
18 -17 -11 -8 -5 -9 23 -5 l38 5 -23 -19 c-13 -11 -18 -19 -12 -20 5 0 16 6
22 12 10 10 15 10 21 -1 5 -8 16 -11 30 -6 11 3 21 2 21 -2 0 -5 16 -15 35
-23 19 -8 35 -17 35 -22 0 -4 8 -5 18 -1 11 3 9 -1 -6 -12 -17 -12 -34 -16
-58 -12 -19 3 -34 2 -34 -4 0 -5 -11 -9 -25 -9 -32 0 -32 -16 -1 -24 14 -3 28
-15 31 -26 7 -22 20 -26 30 -10 4 6 10 8 15 5 4 -3 13 1 19 9 10 11 5 14 -26
12 -28 -1 -38 3 -41 17 -3 14 4 17 33 17 20 0 46 5 57 11 14 8 27 8 42 1 11
-6 60 -28 108 -50 70 -33 86 -44 82 -59 -3 -11 3 -23 16 -31 24 -14 26 -7 5
15 -24 24 -12 25 31 3 21 -10 32 -20 24 -20 -19 -1 17 -23 41 -25 26 -2 92
-47 79 -55 -8 -5 -6 -11 5 -20 8 -7 18 -10 22 -6 3 3 1 6 -5 6 -7 0 -12 4 -12
9 0 5 9 7 20 4 11 -3 17 -9 15 -14 -3 -4 9 -16 27 -25 19 -10 27 -19 20 -22
-7 -2 -19 2 -28 8 -8 7 -17 10 -20 7 -3 -3 6 -13 21 -23 21 -14 31 -15 46 -6
13 9 20 9 25 0 5 -7 3 -8 -6 -3 -9 5 -11 4 -6 -3 4 -7 14 -12 22 -12 8 0 14
-4 14 -10 0 -5 7 -10 15 -10 8 0 15 -4 15 -10 0 -5 6 -10 14 -10 7 0 19 -7 26
-15 15 -18 0 -20 -20 -2 -12 10 -12 9 -2 -5 7 -9 9 -18 5 -20 -10 -6 12 0 34
9 11 4 14 3 9 -6 -6 -8 -2 -11 10 -9 16 2 19 -3 17 -32 -1 -22 1 -30 7 -21 4
8 5 21 2 30 -5 13 -4 14 10 1 8 -8 14 -20 11 -26 -3 -8 36 -35 57 -38 3 -1 16
-9 30 -19 18 -12 20 -17 8 -17 -9 0 -18 5 -20 12 -5 13 -28 2 -28 -13 0 -6 5
-7 10 -4 6 4 22 -1 36 -10 13 -9 28 -13 33 -11 5 3 15 -2 22 -11 12 -14 12
-16 -1 -11 -12 4 -15 -5 -15 -47 0 -57 12 -83 21 -48 3 12 12 24 20 27 19 7
44 -3 44 -19 0 -8 11 -22 25 -33 13 -11 21 -22 18 -26 -3 -3 -2 -6 4 -6 6 0
14 7 17 16 3 8 10 12 16 9 5 -3 10 -1 10 4 0 11 -11 14 -40 12 -11 0 -12 1 -2
5 10 5 1 19 -29 50 -48 49 -56 52 -75 27 -7 -10 -16 -15 -19 -11 -4 4 0 14 9
23 9 9 16 19 15 23 -1 16 -119 107 -134 104 -12 -2 -16 1 -12 11 4 10 -15 31
-54 61 -32 25 -61 46 -64 46 -3 0 -18 11 -33 25 -31 29 -283 202 -316 216 -11
5 -28 13 -36 19 -74 47 -182 100 -191 94 -7 -4 -9 -3 -6 3 8 12 -151 88 -177
84 -10 -1 -16 2 -12 7 3 5 -9 15 -27 22 -17 7 -58 23 -90 36 -66 27 -58 26
-112 9z m700 -315 c3 -6 -1 -7 -9 -4 -18 7 -21 14 -7 14 6 0 13 -4 16 -10z
m616 -480 c21 -17 21 -19 4 -13 -11 3 -23 11 -27 16 -4 6 -13 4 -23 -6 -9 -10
-21 -17 -27 -17 -6 0 -1 9 12 20 29 25 32 25 61 0z"/>
<path d="M4040 7050 c-13 -9 -13 -10 0 -10 8 0 22 5 30 10 13 9 13 10 0 10 -8
0 -22 -5 -30 -10z"/>
<path d="M6215 7049 c-4 -5 1 -9 9 -9 9 0 16 -3 16 -8 0 -4 -21 -6 -47 -3 -67
5 -50 -6 19 -12 46 -5 61 -2 81 13 13 11 27 17 30 14 3 -3 8 -1 12 5 4 7 -4
11 -19 11 -14 0 -25 -3 -25 -7 3 -21 -4 -22 -36 -9 -20 9 -37 11 -40 5z"/>
<path d="M4390 7030 c0 -5 5 -10 11 -10 5 0 7 5 4 10 -3 6 -8 10 -11 10 -2 0
-4 -4 -4 -10z"/>
<path d="M6118 7033 c7 -3 16 -2 19 1 4 3 -2 6 -13 5 -11 0 -14 -3 -6 -6z"/>
<path d="M3875 6999 c-16 -10 -23 -19 -15 -19 8 0 26 9 40 20 32 25 14 25 -25
-1z"/>
<path d="M6560 7000 c0 -5 5 -10 10 -10 6 0 10 5 10 10 0 6 -4 10 -10 10 -5 0
-10 -4 -10 -10z"/>
<path d="M3810 6986 c0 -2 7 -7 16 -10 8 -3 12 -2 9 4 -6 10 -25 14 -25 6z"/>
<path d="M3890 6973 c-14 -7 -18 -13 -10 -13 17 0 47 17 40 23 -3 2 -16 -2
-30 -10z"/>
<path d="M6578 6973 c6 -2 18 -2 25 0 6 3 1 5 -13 5 -14 0 -19 -2 -12 -5z"/>
<path d="M6438 6953 c7 -3 16 -2 19 1 4 3 -2 6 -13 5 -11 0 -14 -3 -6 -6z"/>
<path d="M4018 6943 c6 -2 18 -2 25 0 6 3 1 5 -13 5 -14 0 -19 -2 -12 -5z"/>
<path d="M6465 6940 c-3 -5 -1 -10 4 -10 6 0 11 5 11 10 0 6 -2 10 -4 10 -3 0
-8 -4 -11 -10z"/>
<path d="M6730 6930 c0 -12 33 -30 55 -30 9 0 13 5 10 10 -3 6 -15 10 -26 10
-10 0 -19 5 -19 10 0 6 -4 10 -10 10 -5 0 -10 -4 -10 -10z"/>
<path d="M3915 6860 c27 -12 43 -12 25 0 -8 5 -22 9 -30 9 -10 0 -8 -3 5 -9z"/>
<path d="M6885 6850 c3 -5 11 -10 16 -10 6 0 7 5 4 10 -3 6 -11 10 -16 10 -6
0 -7 -4 -4 -10z"/>
<path d="M6920 6832 c0 -8 72 -33 78 -27 5 5 -54 35 -68 35 -5 0 -10 -3 -10
-8z"/>
<path d="M6890 6810 c8 -5 20 -10 25 -10 6 0 3 5 -5 10 -8 5 -19 10 -25 10 -5
0 -3 -5 5 -10z"/>
<path d="M5174 6785 c-4 -8 -4 -214 -2 -458 4 -420 5 -444 24 -487 12 -25 38
-62 58 -82 71 -71 59 -70 836 -78 908 -11 1594 -13 1598 -5 9 18 -463 411
-698 581 -364 264 -581 375 -900 463 -221 61 -393 81 -703 81 -176 0 -209 -2
-213 -15z m712 -199 c341 -72 686 -255 1168 -621 l159 -120 -189 -3 c-103 -1
-194 0 -201 2 -7 3 -13 14 -13 24 0 43 -32 123 -62 152 -65 66 -123 21 -135
-104 l-6 -66 -627 0 -627 0 -24 26 -24 26 -3 338 -3 338 28 22 c27 22 33 22
233 17 168 -4 227 -10 326 -31z"/>
<path d="M6852 6788 c5 -15 28 -23 28 -10 0 5 -7 13 -16 16 -10 4 -14 1 -12
-6z"/>
<path d="M3410 6770 c0 -5 5 -10 10 -10 6 0 10 5 10 10 0 6 -4 10 -10 10 -5 0
-10 -4 -10 -10z"/>
<path d="M3425 6740 c-3 -5 -1 -10 4 -10 6 0 11 5 11 10 0 6 -2 10 -4 10 -3 0
-8 -4 -11 -10z"/>
<path d="M7040 6730 c0 -5 5 -10 10 -10 6 0 10 5 10 10 0 6 -4 10 -10 10 -5 0
-10 -4 -10 -10z"/>
<path d="M6825 6715 c119 -67 265 -152 290 -171 l30 -22 20 20 20 21 -22 -12
c-27 -14 -36 -14 -28 -1 3 5 -6 12 -20 16 -14 3 -25 10 -25 15 0 5 -7 9 -15 9
-8 0 -15 5 -15 10 0 6 9 10 20 10 11 0 20 4 20 9 0 4 -24 7 -52 5 -33 -3 -48
-1 -40 5 10 6 3 10 -22 15 -20 4 -34 11 -31 16 3 6 -1 7 -9 4 -21 -8 -20 6 0
21 16 11 16 12 1 18 -10 4 -16 2 -14 -5 1 -7 -6 -14 -17 -16 -13 -3 -16 0 -11
9 6 9 3 11 -8 6 -9 -3 -20 -1 -24 6 -5 7 -15 13 -23 13 -8 1 -24 5 -35 9 -11
3 -6 -1 10 -10z"/>
<path d="M7207 6649 c7 -7 15 -10 18 -7 3 3 -2 9 -12 12 -14 6 -15 5 -6 -5z"/>
<path d="M3267 6609 c-4 -13 4 -16 39 -16 30 0 44 4 44 13 0 8 -5 14 -11 14
-5 0 -7 -4 -4 -10 3 -5 1 -10 -4 -10 -6 0 -11 7 -11 15 0 21 -48 16 -53 -6z"/>
<path d="M3180 6610 c0 -5 5 -10 10 -10 6 0 10 5 10 10 0 6 -4 10 -10 10 -5 0
-10 -4 -10 -10z"/>
<path d="M3182 6577 c-21 -27 -23 -37 -8 -37 9 0 16 7 16 16 0 8 4 13 9 9 5
-3 12 -1 15 4 9 14 -21 21 -32 8z"/>
<path d="M7290 6570 c10 -6 11 -10 3 -10 -7 0 -13 -7 -13 -15 0 -20 53 -20 70
0 16 19 14 21 -35 28 -27 4 -35 3 -25 -3z"/>
<path d="M3360 6562 c0 -5 -19 -7 -42 -6 -24 1 -37 -1 -30 -3 10 -4 10 -8 0
-21 -11 -14 -8 -14 15 1 16 10 35 16 42 13 7 -2 21 2 32 9 17 13 17 14 1 15
-10 0 -18 -4 -18 -8z"/>
<path d="M7172 6527 c-8 -9 10 -26 74 -70 47 -31 90 -57 95 -57 6 0 8 -4 5 -8
-3 -5 5 -8 17 -8 13 1 22 -5 21 -14 0 -8 29 -40 66 -71 52 -44 66 -52 67 -38
1 13 -3 16 -15 12 -14 -5 -14 -2 3 17 l20 23 -23 -12 c-18 -10 -25 -9 -38 4
-8 8 -20 15 -25 15 -6 0 -7 5 -3 12 4 7 3 8 -4 4 -7 -4 -12 -3 -12 3 0 5 5 13
10 16 6 3 10 12 10 18 0 7 -7 4 -14 -5 -16 -21 -28 -24 -20 -4 3 8 -9 20 -31
31 -21 9 -55 33 -76 52 -22 20 -42 33 -46 30 -3 -4 -14 5 -25 18 -12 16 -25
22 -36 18 -15 -6 -15 -5 -3 10 7 9 9 17 3 17 -5 0 -14 -6 -20 -13z"/>
<path d="M7316 6471 c-10 -15 9 -31 34 -30 11 1 11 2 -2 6 -9 2 -18 12 -20 21
-3 14 -5 14 -12 3z"/>
<path d="M2908 6403 c6 -2 18 -2 25 0 6 3 1 5 -13 5 -14 0 -19 -2 -12 -5z"/>
<path d="M2860 6335 c-8 -9 -8 -15 -2 -15 12 0 26 19 19 26 -2 2 -10 -2 -17
-11z"/>
<path d="M7620 6330 c8 -5 20 -10 25 -10 6 0 3 5 -5 10 -8 5 -19 10 -25 10 -5
0 -3 -5 5 -10z"/>
<path d="M3375 6201 c-44 -37 -127 -114 -185 -169 l-105 -101 270 -1 c154 0
286 -5 307 -10 56 -16 119 -69 147 -125 21 -40 26 -63 26 -125 0 -106 -36
-164 -128 -212 -36 -18 -68 -20 -445 -25 l-407 -6 -28 -25 c-52 -49 -53 -107
-1 -267 41 -127 110 -289 185 -434 54 -103 69 -143 69 -175 0 -24 9 -78 20
-121 72 -280 314 -465 608 -465 175 0 321 59 442 180 110 110 169 231 185 384
l7 66 847 1 c704 1 1297 10 1190 17 -23 2 -39 32 -17 32 5 0 20 11 34 25 14
14 29 25 34 25 19 0 210 254 210 279 0 6 4 11 8 11 5 0 13 9 18 19 32 68 271
304 365 360 49 30 139 71 155 71 8 0 14 4 14 9 0 16 126 36 235 36 112 0 265
-21 265 -36 0 -5 6 -9 14 -9 7 0 27 -7 42 -15 16 -8 35 -15 42 -15 25 0 3 17
-40 30 -24 7 -47 17 -53 20 -41 29 -302 50 -625 50 -327 0 -1112 34 -1665 70
-82 6 -262 17 -400 25 -623 38 -680 51 -913 212 -51 35 -125 89 -165 119 -40
31 -132 102 -206 158 -74 55 -163 125 -199 154 -35 28 -67 52 -71 52 -3 0 -42
-31 -86 -69z m509 -1260 c266 -131 316 -481 97 -683 -84 -78 -146 -101 -276
-102 -79 0 -111 4 -152 21 -117 47 -215 153 -249 271 -24 83 -16 220 18 293
47 102 141 185 247 221 42 13 80 17 152 15 85 -2 103 -6 163 -36z"/>
<path d="M3632 4767 c-118 -43 -173 -173 -121 -287 25 -56 44 -77 89 -100 78
-39 159 -33 231 16 106 73 114 231 15 322 -63 58 -139 76 -214 49z"/>
<path d="M2805 6230 c-3 -6 1 -7 9 -4 18 7 21 14 7 14 -6 0 -13 -4 -16 -10z"/>
<path d="M7682 6089 c79 -78 145 -141 148 -140 3 0 6 15 6 33 1 18 0 28 -3 22
-5 -16 -53 -5 -53 12 0 22 4 29 17 29 7 0 22 8 33 18 11 9 26 17 33 17 7 0 23
7 36 16 17 12 26 13 34 5 8 -8 6 -11 -8 -11 -27 0 -10 -13 22 -16 25 -3 23 0
-26 50 -50 51 -81 66 -81 40 0 -7 9 -10 23 -8 12 2 16 2 10 -2 -20 -9 -15 -24
7 -24 11 0 20 -5 20 -11 0 -7 -12 -8 -32 -5 -31 6 -32 5 -8 -5 l25 -12 -25 -7
c-14 -5 -37 -8 -52 -9 -19 -1 -28 -6 -28 -17 0 -9 -6 -14 -12 -11 -7 2 -13 18
-13 35 0 17 -4 33 -10 34 -17 5 -17 -48 -1 -62 9 -7 16 -17 16 -23 0 -5 -9 -2
-20 8 -11 10 -20 24 -20 32 0 7 -5 13 -10 13 -6 0 -23 12 -38 26 -19 19 -22
25 -9 20 11 -3 16 -2 12 5 -4 5 -12 8 -18 6 -6 -2 -31 16 -56 40 -25 23 -50
43 -54 43 -4 0 56 -64 135 -141z m142 -115 c5 -14 4 -15 -9 -4 -17 14 -19 20
-6 20 5 0 12 -7 15 -16z"/>
<path d="M2620 6201 c-15 -28 -12 -64 6 -87 15 -18 15 -18 5 3 -13 25 -15 66
-3 60 4 -3 7 6 7 19 0 29 -1 29 -15 5z"/>
<path d="M2825 6200 c-3 -6 1 -7 9 -4 18 7 21 14 7 14 -6 0 -13 -4 -16 -10z"/>
<path d="M7760 6182 c0 -12 19 -26 26 -19 2 2 -2 10 -11 17 -9 8 -15 8 -15 2z"/>
<path d="M2765 6109 c-11 -17 1 -21 15 -4 8 9 8 15 2 15 -6 0 -14 -5 -17 -11z"/>
<path d="M2720 6085 c0 -9 6 -12 15 -9 8 4 15 7 15 9 0 2 -7 5 -15 9 -9 3 -15
0 -15 -9z"/>
<path d="M2650 6080 c8 -5 26 -10 39 -10 32 0 24 6 -19 14 -25 4 -31 3 -20 -4z"/>
<path d="M7926 6054 c-9 -24 -7 -27 9 -10 17 17 19 26 6 26 -5 0 -12 -7 -15
-16z"/>
<path d="M7951 6036 c-19 -20 -20 -24 -6 -30 10 -3 14 -2 10 5 -4 6 1 16 11
24 11 7 16 16 13 19 -3 3 -16 -5 -28 -18z"/>
<path d="M7981 6026 c-13 -16 -6 -21 21 -17 4 0 5 -6 2 -14 -5 -11 -2 -13 11
-9 15 6 16 3 10 -17 -7 -21 -6 -22 8 -10 14 11 18 10 28 -13 7 -14 16 -23 20
-20 5 3 9 -5 9 -18 0 -26 25 -68 41 -68 6 0 3 7 -5 16 -20 20 -21 30 -1 14 44
-36 -19 50 -101 138 -27 30 -32 32 -43 18z"/>
<path d="M7917 5836 c42 -52 80 -93 84 -90 5 2 -8 21 -27 41 -19 19 -32 38
-28 42 4 3 9 0 11 -6 3 -7 9 -13 15 -13 6 0 5 6 -2 15 -7 9 -18 14 -24 12 -16
-5 -39 21 -32 39 3 8 2 12 -4 9 -6 -3 -10 3 -10 15 0 13 -5 20 -12 17 -7 -2
-21 0 -31 5 -9 5 17 -34 60 -86z"/>
<path d="M8150 5844 c0 -6 9 -19 19 -28 11 -10 25 -32 32 -49 7 -18 20 -37 28
-43 8 -7 11 -16 6 -24 -6 -9 -4 -12 6 -8 11 4 26 -14 51 -63 19 -37 38 -65 42
-62 9 9 7 -2 -4 -31 -5 -14 -7 -26 -4 -26 2 0 8 10 13 22 6 17 8 10 7 -25 -1
-27 -6 -49 -13 -52 -20 -7 -15 -31 6 -31 12 0 17 6 13 18 -3 14 0 17 12 12 9
-3 16 -1 16 5 0 6 -5 11 -11 11 -7 0 -9 12 -6 33 2 18 -2 44 -10 60 -23 45
-115 177 -123 177 -4 0 -11 10 -14 23 -7 25 -66 97 -66 81z"/>
<path d="M8016 5720 c29 -58 94 -127 94 -100 0 6 -6 10 -14 10 -16 0 -29 27
-20 41 3 5 -3 12 -13 16 -10 4 -26 16 -36 28 -10 11 -15 13 -11 5z"/>
<path d="M2930 5700 c-8 -5 -12 -11 -10 -14 3 -2 14 2 24 10 22 15 10 19 -14
4z"/>
<path d="M3635 5697 c4 -9 1 -14 -7 -14 -15 2 -18 -4 -18 -36 0 -15 6 -24 15
-24 11 0 12 4 5 11 -5 5 -10 19 -9 31 0 20 0 20 9 0 7 -16 9 -17 9 -3 1 9 6
18 12 20 7 2 5 9 -5 17 -14 12 -16 12 -11 -2z"/>
<path d="M3121 5696 c2 -2 105 -6 229 -9 143 -4 220 -3 210 3 -14 9 -449 15
-439 6z"/>
<path d="M2920 5643 c0 -18 2 -33 4 -33 9 0 13 39 5 51 -6 10 -9 4 -9 -18z"/>
<path d="M3650 5660 c0 -5 5 -10 11 -10 5 0 7 5 4 10 -3 6 -8 10 -11 10 -2 0
-4 -4 -4 -10z"/>
<path d="M2902 5640 c0 -14 2 -19 5 -12 2 6 2 18 0 25 -3 6 -5 1 -5 -13z"/>
<path d="M2947 5633 c-3 -16 -2 -32 2 -36 4 -4 46 -6 92 -4 l84 3 -87 2 -87 2
6 30 c3 17 3 30 0 30 -2 0 -7 -12 -10 -27z"/>
<path d="M8253 5608 c3 -9 1 -19 -6 -21 -9 -3 -9 -10 2 -30 8 -14 18 -24 23
-21 13 8 9 47 -9 69 -12 15 -14 16 -10 3z"/>
<path d="M3305 5597 c-33 -4 -75 -6 -92 -3 -19 3 -33 0 -33 -5 0 -6 5 -7 10
-4 6 3 10 1 10 -4 0 -8 65 -10 203 -9 151 1 181 3 117 8 -50 4 -67 7 -41 8 24
1 41 5 37 9 -10 10 -137 10 -211 0z"/>
<path d="M2932 5584 c10 -10 20 -16 22 -13 3 3 -5 11 -17 18 -21 13 -21 12 -5
-5z"/>
<path d="M3573 5593 c9 -2 23 -2 30 0 6 3 -1 5 -18 5 -16 0 -22 -2 -12 -5z"/>
<path d="M8116 5570 c10 -16 22 -26 28 -23 5 4 7 0 3 -9 -3 -9 2 -23 13 -33
11 -10 22 -27 26 -39 4 -11 15 -33 25 -48 28 -39 118 -223 168 -343 22 -52 42
-118 64 -210 14 -55 27 -93 29 -85 3 8 4 2 2 -15 -5 -36 16 -186 28 -200 4 -5
8 -18 7 -30 -1 -17 -2 -17 -10 5 -5 16 -7 -10 -3 -70 4 -85 8 -97 30 -117 37
-34 88 -31 126 8 l31 30 -7 137 c-6 140 -38 369 -56 402 -6 10 -10 31 -10 47
0 23 -2 25 -11 13 -8 -12 -9 -9 -5 12 4 17 -4 52 -24 100 -16 40 -30 77 -30
82 0 5 -13 38 -30 73 -16 34 -30 68 -30 73 0 6 -4 10 -10 10 -5 0 -10 7 -10
15 0 28 -40 96 -52 89 -7 -4 -8 -3 -4 4 7 12 -22 77 -31 68 -3 -3 0 -18 6 -34
7 -16 12 -36 11 -43 -5 -31 1 -49 14 -49 8 0 17 -7 20 -16 3 -8 10 -13 15 -10
5 3 7 -3 4 -14 -4 -14 0 -20 11 -20 9 0 16 -5 16 -11 0 -6 -7 -8 -16 -5 -10 4
-14 1 -12 -6 3 -7 15 -14 27 -16 17 -3 20 -8 15 -24 -4 -14 -2 -18 5 -14 14 9
14 5 0 -30 -10 -28 -10 -28 10 -10 19 18 20 17 18 -3 -1 -12 -5 -21 -10 -21
-5 0 -1 -7 7 -16 19 -19 18 -15 21 -84 1 -41 6 -56 18 -58 21 -4 37 -54 37
-118 0 -31 4 -54 11 -54 5 0 7 -4 4 -10 -3 -5 -2 -10 4 -10 6 0 8 -7 5 -15 -4
-8 -1 -15 5 -15 6 0 11 -16 11 -35 0 -33 -2 -35 -35 -35 -28 0 -35 -4 -35 -20
0 -11 -4 -20 -10 -20 -5 0 -10 9 -10 20 0 11 5 20 10 20 6 0 10 9 10 20 0 12
7 20 18 20 9 0 23 4 30 8 8 5 -1 8 -22 8 -19 -1 -32 -4 -29 -8 2 -5 -12 -8
-31 -8 -25 0 -36 4 -36 15 0 8 -5 15 -11 15 -8 0 -10 12 -6 33 3 19 1 40 -5
48 -7 10 -8 7 -3 -11 5 -19 4 -22 -4 -10 -6 8 -9 29 -6 45 4 24 3 26 -4 10 -5
-11 -10 -15 -10 -8 -1 18 10 43 18 39 3 -2 6 16 6 39 0 27 -3 39 -8 32 -7 -9
-10 -9 -14 1 -2 6 -11 12 -19 12 -8 0 -14 9 -14 20 0 11 -5 20 -11 20 -5 0 -9
10 -7 23 2 14 -2 21 -11 19 -9 -2 -11 3 -7 13 15 38 16 48 1 25 -15 -23 -15
-24 -10 -2 4 13 2 22 -4 22 -6 0 -11 5 -11 10 0 6 -9 20 -19 32 -11 11 -17 26
-14 34 3 8 0 14 -6 14 -6 0 -11 8 -11 18 0 14 2 15 10 2 6 -9 10 -10 10 -3 0
6 -4 15 -10 18 -18 11 -11 33 9 28 11 -3 17 -11 15 -18 -7 -16 33 -45 52 -38
8 3 17 16 20 29 3 13 10 24 15 24 5 0 9 7 9 15 0 23 -17 18 -25 -7 -7 -21 -8
-20 -12 10 -2 18 -9 30 -14 27 -5 -4 -9 1 -9 10 0 9 -4 14 -9 11 -5 -4 -12 0
-14 6 -3 8 -6 6 -6 -4 -1 -10 -5 -18 -9 -18 -9 0 -11 6 -15 62 -2 21 -7 41
-11 45 -3 4 -5 -4 -4 -17 2 -17 -3 -25 -16 -28 -11 -2 -28 -14 -39 -26 -15
-17 -18 -17 -13 -3 7 23 -10 68 -26 65 -7 -2 -14 7 -16 20 -2 16 -8 22 -18 18
-8 -3 -12 -1 -9 4 3 5 -1 21 -10 34 -9 14 -14 29 -12 33 3 5 -6 10 -19 11 -25
2 -25 2 -8 -28z m18 4 c3 -8 2 -12 -4 -9 -6 3 -10 10 -10 16 0 14 7 11 14 -7z
m96 -145 c0 -6 -4 -7 -10 -4 -5 3 -10 11 -10 16 0 6 5 7 10 4 6 -3 10 -11 10
-16z m177 -21 c-3 -8 -6 -5 -6 6 -1 11 2 17 5 13 3 -3 4 -12 1 -19z m-93 -26
c15 -19 16 -26 6 -35 -10 -10 -12 -8 -6 8 6 20 6 20 -9 1 -8 -11 -15 -27 -15
-35 -1 -13 -2 -13 -11 2 -5 9 -7 22 -3 29 4 6 3 8 -3 5 -6 -4 -13 6 -15 23 -4
26 -2 30 16 28 12 -2 29 -13 40 -26z m274 -357 c-3 -3 -9 2 -12 12 -6 14 -5
15 5 6 7 -7 10 -15 7 -18z m-144 -27 c9 -36 -6 -42 -20 -8 -17 40 -17 41 0 34
8 -3 17 -15 20 -26z m163 -100 c-3 -7 -5 -2 -5 12 0 14 2 19 5 13 2 -7 2 -19
0 -25z m52 -248 c-1 -10 -2 -11 -6 -2 -2 6 -10 9 -16 5 -7 -4 -8 0 -4 11 4 10
7 23 8 29 1 17 18 -25 18 -43z m-113 -60 c0 -33 -3 -60 -8 -60 -10 0 -11 104
-1 113 3 4 7 7 7 7 1 0 1 -27 2 -60z m94 30 c0 -11 -4 -20 -10 -20 -5 0 -10 9
-10 20 0 11 5 20 10 20 6 0 10 -9 10 -20z m19 -117 c-1 -54 -4 -86 -6 -70 -2
15 -8 25 -12 23 -4 -3 -13 0 -21 5 -13 8 -13 11 2 22 10 8 18 33 21 62 6 59 6
55 12 55 3 0 4 -44 4 -97z m-32 40 c-3 -10 -5 -4 -5 12 0 17 2 24 5 18 2 -7 2
-21 0 -30z m-54 -41 c3 -23 1 -40 -3 -37 -5 3 -11 -3 -13 -12 -7 -28 -8 30 -1
66 8 39 10 37 17 -17z m-3 -122 c5 0 7 -7 4 -15 -4 -8 -10 -15 -15 -15 -4 0
-6 6 -3 14 3 9 -3 20 -15 28 -12 7 -21 22 -21 33 0 16 4 13 20 -12 11 -18 24
-33 30 -33z m90 8 c0 -4 -4 -8 -9 -8 -6 0 -12 4 -15 8 -3 5 1 9 9 9 8 0 15 -4
15 -9z m-37 -15 c-7 -2 -19 -2 -25 0 -7 3 -2 5 12 5 14 0 19 -2 13 -5z"/>
<path d="M3140 5580 l-25 -8 28 -1 c15 -1 27 4 27 9 0 6 -1 10 -2 9 -2 -1 -14
-5 -28 -9z"/>
<path d="M3048 5573 c6 -2 18 -2 25 0 6 3 1 5 -13 5 -14 0 -19 -2 -12 -5z"/>
<path d="M8200 5494 c0 -8 5 -12 10 -9 6 4 8 11 5 16 -9 14 -15 11 -15 -7z"/>
<path d="M7854 5355 c20 -14 40 -25 43 -25 4 0 -8 11 -27 25 -19 14 -38 25
-43 25 -6 0 7 -11 27 -25z"/>
<path d="M7924 5311 c4 -6 16 -16 28 -22 15 -8 18 -8 14 0 -4 6 -16 16 -28 22
-15 8 -18 8 -14 0z"/>
<path d="M8005 5233 c0 -29 12 -38 35 -23 12 7 10 12 -9 29 -13 12 -25 21 -25
21 -1 0 -2 -12 -1 -27z m25 -13 c0 -5 -4 -10 -10 -10 -5 0 -10 5 -10 10 0 6 5
10 10 10 6 0 10 -4 10 -10z"/>
<path d="M7448 5233 c7 -3 16 -2 19 1 4 3 -2 6 -13 5 -11 0 -14 -3 -6 -6z"/>
<path d="M7388 5223 c6 -2 18 -2 25 0 6 3 1 5 -13 5 -14 0 -19 -2 -12 -5z"/>
<path d="M7235 5191 c-33 -10 -72 -23 -86 -29 -15 -6 -30 -8 -35 -4 -4 4 -4 1
0 -5 4 -8 1 -13 -7 -13 -8 0 -20 -7 -27 -15 -7 -9 -19 -14 -27 -11 -8 3 -12 2
-9 -3 3 -5 -4 -16 -17 -24 -57 -38 -187 -193 -187 -224 0 -8 -5 -11 -12 -7 -6
4 -8 3 -4 -4 3 -6 0 -28 -8 -49 -8 -21 -17 -47 -22 -58 -10 -28 -11 -33 -12
-98 -1 -32 -5 -56 -9 -54 -5 3 -17 1 -28 -4 -17 -7 -17 -8 8 -8 15 -1 27 -4
27 -8 2 -52 25 -171 41 -221 27 -82 106 -199 172 -257 160 -140 413 -190 614
-122 94 32 149 65 221 132 113 104 182 236 203 390 l12 85 56 1 c85 1 100 4
128 25 53 40 63 63 54 129 -5 33 -9 48 -10 33 0 -14 -7 -29 -13 -31 -10 -4
-10 -8 1 -15 9 -6 10 -12 3 -16 -6 -4 -9 -13 -5 -21 3 -8 0 -15 -7 -15 -8 0
-10 9 -6 25 5 18 2 25 -9 25 -8 0 -15 7 -15 15 0 8 4 15 9 15 4 0 6 11 3 25
-3 16 -11 25 -22 25 -23 0 -58 -32 -41 -38 16 -5 13 -22 -4 -22 -11 0 -15 8
-13 28 3 25 1 27 -37 27 l-40 0 3 -48 c4 -46 3 -48 -16 -36 -12 7 -18 17 -15
22 3 5 10 3 15 -4 6 -10 8 -4 4 16 -3 17 -8 47 -12 68 -4 24 -2 43 6 52 8 9 8
15 2 15 -6 0 -12 -5 -14 -11 -3 -8 -10 -8 -25 2 -22 13 -38 52 -34 78 2 10 -2
10 -14 -3 -13 -13 -20 -14 -31 -5 -8 7 -12 15 -8 18 4 3 9 0 11 -7 3 -6 9 -9
15 -6 5 3 0 13 -11 21 -12 8 -21 23 -21 34 0 17 -3 18 -20 9 -16 -9 -18 -8
-14 5 4 8 11 15 17 15 6 0 8 3 5 6 -4 3 -15 1 -27 -5 -14 -8 -22 -8 -27 1 -4
6 -3 8 4 4 23 -14 20 13 -3 28 -28 19 -39 20 -29 5 11 -18 -30 7 -47 28 -12
16 -11 16 9 -1 12 -11 25 -17 28 -13 7 7 -40 39 -53 35 -17 -5 -83 36 -78 49
2 7 0 13 -5 13 -6 0 -10 -4 -10 -9 0 -6 -12 -6 -31 1 -18 6 -26 13 -20 18 6 3
-3 7 -21 8 -306 12 -313 12 -373 -7z m328 -231 c169 -65 264 -217 255 -408
-10 -206 -145 -357 -351 -392 -175 -31 -348 62 -430 230 -30 62 -32 71 -32
180 0 104 3 121 27 173 55 116 181 215 304 237 67 12 165 3 227 -20z m415 -65
c-3 -3 -9 2 -12 12 -6 14 -5 15 5 6 7 -7 10 -15 7 -18z m52 -81 c0 -14 4 -22
10 -19 6 3 10 2 10 -4 0 -25 -19 -18 -29 11 -14 39 -14 51 -1 43 6 -3 10 -17
10 -31z m153 -114 c-7 -26 4 -68 20 -73 6 -2 -1 -2 -17 1 -22 3 -27 1 -20 -9
6 -11 5 -12 -7 -3 -11 9 -17 9 -26 -1 -6 -7 -9 -16 -6 -19 4 -3 -4 -6 -17 -6
-13 0 -21 3 -17 6 3 3 -3 14 -14 25 -10 10 -18 31 -18 47 1 15 3 20 5 12 3
-11 16 -14 49 -12 40 4 45 7 45 28 0 14 6 24 14 24 9 0 12 -7 9 -20z m-136
-42 c-3 -8 -6 -5 -6 6 -1 11 2 17 5 13 3 -3 4 -12 1 -19z m33 -58 c0 -5 -4
-10 -10 -10 -5 0 -10 5 -10 10 0 6 5 10 10 10 6 0 10 -4 10 -10z"/>
<path d="M7325 4761 c-147 -66 -165 -276 -32 -368 57 -40 154 -44 217 -11 67
36 103 94 108 171 4 71 -12 118 -55 161 -62 63 -160 83 -238 47z"/>
<path d="M8077 5180 c4 -14 7 -33 7 -42 0 -9 4 -14 8 -12 8 5 28 -28 28 -45 0
-20 -18 -11 -25 12 -6 19 -8 19 -12 5 -2 -10 3 -25 12 -34 15 -15 17 -15 34 0
10 9 21 16 24 16 12 0 7 -28 -5 -34 -7 -3 -3 -3 10 0 20 5 21 3 12 -22 -6 -15
-8 -34 -5 -42 3 -9 1 -18 -4 -21 -6 -4 -6 -12 -1 -21 14 -23 24 -3 24 50 0 27
3 47 8 44 4 -3 -1 11 -13 30 -12 20 -25 36 -30 36 -5 0 -9 7 -9 16 0 8 -4 12
-10 9 -5 -3 -10 -1 -10 5 0 6 -5 8 -12 4 -8 -5 -9 -2 -4 12 4 10 4 15 0 11 -4
-4 -14 5 -21 20 -11 25 -12 25 -6 3z m100 -192 c-3 -8 -6 -5 -6 6 -1 11 2 17
5 13 3 -3 4 -12 1 -19z"/>
<path d="M8420 5146 c0 -9 5 -16 10 -16 6 0 10 4 10 9 0 6 -4 13 -10 16 -5 3
-10 -1 -10 -9z"/>
<path d="M8500 5130 c0 -5 5 -10 10 -10 6 0 10 5 10 10 0 6 -4 10 -10 10 -5 0
-10 -4 -10 -10z"/>
<path d="M8473 5114 c-15 -15 -17 -28 -4 -19 5 3 11 -7 13 -22 l3 -28 12 32
c14 37 -2 62 -24 37z"/>
<path d="M8204 4993 c1 -19 5 -28 10 -23 6 6 5 18 -1 32 -10 21 -10 21 -9 -9z"/>
<path d="M8513 5013 c-16 -6 -17 -79 -1 -89 8 -5 9 0 6 14 -4 15 -2 22 8 22 8
0 14 6 14 14 0 8 3 21 6 30 6 16 -8 20 -33 9z"/>
<path d="M8472 4990 c0 -14 2 -19 5 -12 2 6 2 18 0 25 -3 6 -5 1 -5 -13z"/>
<path d="M8560 4975 c0 -5 5 -17 10 -25 5 -8 10 -10 10 -5 0 6 -5 17 -10 25
-5 8 -10 11 -10 5z"/>
<path d="M8536 4938 c-4 -9 -4 -23 0 -30 4 -7 4 -10 -1 -6 -17 15 -36 -22 -33
-64 3 -50 33 -67 43 -26 9 36 1 147 -9 126z m-19 -115 c-3 -10 -5 -2 -5 17 0
19 2 27 5 18 2 -10 2 -26 0 -35z"/>
<path d="M8233 4910 c-1 -11 2 -20 7 -20 5 0 11 -10 13 -22 2 -13 3 -8 1 11
-4 39 -19 61 -21 31z"/>
<path d="M8561 4920 c0 -8 4 -22 9 -30 12 -18 12 -2 0 25 -6 13 -9 15 -9 5z"/>
<path d="M8071 4824 c0 -11 3 -14 6 -6 3 7 2 16 -1 19 -3 4 -6 -2 -5 -13z"/>
<path d="M8255 4799 c-4 -11 -4 -23 -1 -26 3 -4 6 1 6 10 0 8 5 17 12 19 9 3
9 6 1 11 -7 4 -14 -1 -18 -14z"/>
<path d="M6503 4583 c43 -2 110 -2 150 0 40 1 5 3 -78 3 -82 0 -115 -2 -72 -3z"/>
<path d="M4339 4122 c-30 -31 -70 -70 -89 -84 l-35 -27 1333 -1 c732 0 1332 3
1332 8 -1 4 -20 22 -44 41 -23 18 -53 50 -66 71 -23 37 -24 37 -104 44 -45 3
-574 6 -1177 6 l-1096 0 -54 -58z"/>
</g>
</svg>
